# xmcd
#
# Track frame offsets: 
#        150
#        16202
#        31422
#        48473
#        65921
#        80295
#        95791
#        112083
#        127026
#        145464
#        159467
#
# Disc length: 2342 seconds
#
# Revision: 0
# Processed by: cddbd v1.5.2PL0 Copyright (c) Steve Scherf et al.
# Submitted via: ExactAudioCopyFreeDBPlugin 1.0
#
DISCID=9e09240b
DTITLE=Taylor Henderson -  Taylor Henderson
DYEAR=2013
DGENRE=Folk/Rock
TTITLE0=Borrow My Heart
TTITLE1=I Won't Let You Go
TTITLE2=I Will Wait 
TTITLE3=Let Her Go
TTITLE4=Choir Girl 
TTITLE5=The Horses
TTITLE6=One Crowded Hour
TTITLE7=Girls Just Want To Have Fun
TTITLE8=Some Nights
TTITLE9=The Blower's Daughter
TTITLE10=Human Nature 
EXTD=
EXTT0=
EXTT1=
EXTT2=
EXTT3=
EXTT4=
EXTT5=
EXTT6=
EXTT7=
EXTT8=
EXTT9=
EXTT10=
PLAYORDER=
